<svg width="24" height="24" viewBox="0 0 24 24" fill="none" xmlns="http://www.w3.org/2000/svg">
<path fill-rule="evenodd" clip-rule="evenodd" d="M7.11915 4C5.51146 4 4.40615 5.61579 4.98885 7.11416L6.32218 10.5427C6.66385 11.4213 7.50982 12 8.45248 12H15.1031C16.0458 12 16.8917 11.4213 17.2334 10.5427L18.5667 7.11416C19.1494 5.61579 18.0441 4 16.4364 4H7.11915ZM2.94119 14.3131C2.56855 13.8824 2.26296 13.3338 2.11378 12.8061C1.77036 11.5914 2.23052 10.3978 3.14159 10.1403C4.05265 9.8827 5.14865 11.4836 5.49207 12.6984C5.53536 12.8515 5.56709 12.9999 5.58767 13.1429H18.0028C18.0128 12.9213 18.049 12.6929 18.1138 12.4637C18.4572 11.2489 19.6296 9.92309 20.5407 10.1807C21.4518 10.4382 21.8355 11.3567 21.4921 12.5714C21.3712 12.9989 21.1572 13.4741 20.8908 13.8994C20.8719 13.9538 20.8441 14.0069 20.8064 14.0571L18.4064 17.2571C18.1905 17.5449 17.8518 17.7143 17.4921 17.7143L17.4921 19.4286C17.4921 19.7442 17.2362 20 16.9206 20H15.7778C15.4622 20 15.2064 19.7442 15.2064 19.4286V17.7143H8.34922V19.4286C8.34922 19.7442 8.09338 20 7.77779 20H6.63493C6.31934 20 6.0635 19.7442 6.0635 19.4286L6.0635 17.7143C5.70378 17.7143 5.36505 17.5449 5.14922 17.2571L2.94119 14.3131Z" fill="black"/>
</svg>
