<svg width="24" height="24" viewBox="0 0 24 24" fill="none" xmlns="http://www.w3.org/2000/svg">
<g clip-path="url(#clip0_97_7943)">
<path d="M9.99993 13L10.5921 12.5397L10.592 12.5396L10.5915 12.5389L10.5894 12.5363L10.5814 12.5259L10.5497 12.4852L10.4279 12.3285L9.97771 11.7492C9.59643 11.2587 9.06702 10.5778 8.47447 9.81583C7.29 8.29275 5.85297 6.44586 4.84269 5.1505C4.71605 4.98519 4.83124 4.75 5.03993 4.75H18.9499C19.1586 4.75 19.2738 4.98516 19.1472 5.15047C18.1367 6.44617 16.7019 8.29334 15.5199 9.81643C14.9286 10.5784 14.4004 11.2594 14.0201 11.75L13.571 12.3292L13.4494 12.486L13.4179 12.5267L13.4098 12.5371L13.4078 12.5397L13.4073 12.5403L13.4072 12.5405L13.9999 13L13.4071 12.5406L13.2499 12.7434V13V19C13.2499 19.1358 13.1357 19.25 12.9999 19.25H10.9999C10.8641 19.25 10.7499 19.1358 10.7499 19V13V12.7429L10.5921 12.5398L9.99993 13Z" stroke="black" stroke-width="1.5"/>
</g>
<defs>
<clipPath id="clip0_97_7943">
<rect width="24" height="24" fill="white"/>
</clipPath>
</defs>
</svg>
