<svg width="24" height="24" viewBox="0 0 24 24" fill="none" xmlns="http://www.w3.org/2000/svg">
<path fill-rule="evenodd" clip-rule="evenodd" d="M21.9601 12.8929C22.0042 12.4011 21.5997 12 21.1059 12C20.6121 12 20.2169 12.4015 20.1632 12.8924C19.9855 14.5185 19.3249 16.0621 18.2566 17.3188C16.9944 18.8035 15.2453 19.791 13.3219 20.1047C11.3986 20.4185 9.42638 20.0379 7.7578 19.0312C6.0892 18.0245 4.83302 16.4572 4.21379 14.6094C3.59454 12.7617 3.6526 10.7539 4.37759 8.94503C5.10257 7.13614 6.44724 5.64403 8.1712 4.73542C9.89517 3.8268 11.8861 3.5609 13.7881 3.98523C15.0329 4.26296 16.1866 4.82448 17.1644 5.61539L15.191 7.13921C14.9119 7.35475 15.028 7.79981 15.3769 7.85149L20.2134 8.56801C20.4379 8.60128 20.6451 8.4413 20.6696 8.21569L21.1996 3.3552C21.2378 3.00461 20.8366 2.77971 20.5575 2.99526L18.6118 4.49771C17.3556 3.39061 15.8327 2.60924 14.1775 2.23996C11.8613 1.72322 9.43684 2.04703 7.33746 3.15351C5.23808 4.25998 3.60062 6.077 2.71777 8.27977C1.83492 10.4826 1.76421 12.9275 2.5183 15.1776C3.27239 17.4278 4.80209 19.3364 6.83403 20.5623C8.86595 21.7882 11.2676 22.2516 13.6098 21.8696C15.952 21.4876 18.0819 20.2851 19.619 18.477C20.9623 16.8968 21.7762 14.9442 21.9601 12.8929Z" fill="black"/>
</svg>
