<svg width="24" height="24" viewBox="0 0 24 24" fill="none" xmlns="http://www.w3.org/2000/svg">
<path fill-rule="evenodd" clip-rule="evenodd" d="M10.5337 5.27064C11.0164 6.82231 10.5983 8.35046 9.59977 8.68387C8.60128 9.01727 7.40052 8.02967 6.91779 6.478C6.43507 4.92634 6.85318 3.39818 7.85168 3.06478C8.85017 2.73138 10.0509 3.71898 10.5337 5.27064ZM5.8223 8.13519C6.50865 9.60221 6.29977 11.1758 5.35574 11.6498C4.41171 12.1238 3.09003 11.3189 2.40368 9.85185C1.71733 8.38482 1.92622 6.81127 2.87024 6.33723C3.81427 5.86319 5.13595 6.66816 5.8223 8.13519ZM15.1314 20.6096C14.3614 20.181 13.4403 19.9267 12.5591 19.9267C11.6775 19.9267 10.7558 20.1811 9.9855 20.6098C9.53531 20.8604 9.03433 21.0001 8.50641 21.0001C6.54814 21.0001 4.96065 19.0778 4.96065 16.7065C4.96065 14.9971 5.78552 13.5211 6.97954 12.8302C7.68738 12.4206 8.38085 11.8843 8.82298 11.1964C9.64739 9.91354 11.0134 9.19263 12.5591 9.19263C14.1049 9.19263 15.4711 9.91371 16.2955 11.1968C16.7374 11.8847 17.4305 12.4209 18.1381 12.8305C19.3319 13.5215 20.1566 14.9974 20.1566 16.7065C20.1566 19.0778 18.5691 21.0001 16.6108 21.0001C16.0828 21.0001 15.5817 20.8603 15.1314 20.6096ZM18.644 11.6498C17.7 11.1758 17.4911 9.60221 18.1775 8.13519C18.8638 6.66816 20.1855 5.86319 21.1295 6.33723C22.0736 6.81127 22.2824 8.38482 21.5961 9.85185C20.9097 11.3189 19.5881 12.1238 18.644 11.6498ZM14.1124 8.68411C13.1139 8.35071 12.6958 6.82255 13.1785 5.27089C13.6612 3.71922 14.862 2.73162 15.8605 3.06503C16.859 3.39843 17.2771 4.92658 16.7943 6.47825C16.3116 8.02991 15.1109 9.01751 14.1124 8.68411Z" fill="black"/>
</svg>
