<svg width="24" height="24" viewBox="0 0 24 24" fill="none" xmlns="http://www.w3.org/2000/svg">
<path fill-rule="evenodd" clip-rule="evenodd" d="M7.88244 11.0588C9.83168 11.0588 11.4119 9.47865 11.4119 7.52941C11.4119 5.58017 9.83168 4 7.88244 4C5.9332 4 4.35303 5.58017 4.35303 7.52941C4.35303 9.47865 5.9332 11.0588 7.88244 11.0588ZM15.5293 11.0589C17.1537 11.0589 18.4705 9.74206 18.4705 8.11769C18.4705 6.49332 17.1537 5.17651 15.5293 5.17651C13.9049 5.17651 12.5881 6.49332 12.5881 8.11769C12.5881 9.74206 13.9049 11.0589 15.5293 11.0589ZM2 15.4439V19.2942H13.7647V15.4439C13.6013 14.5883 12.1961 12.2354 7.88235 12.2354C3.56863 12.2354 2.1634 14.5883 2 15.4439ZM21.9999 15.4439V19.2942H14.9411V15.4439C14.8348 14.8875 14.2033 13.6977 12.5881 12.9338C13.4565 12.523 14.6092 12.2354 16.1175 12.2354C20.4313 12.2354 21.8365 14.5883 21.9999 15.4439Z" fill="black"/>
</svg>
