<svg width="24" height="24" viewBox="0 0 24 24" fill="none" xmlns="http://www.w3.org/2000/svg">
<path fill-rule="evenodd" clip-rule="evenodd" d="M5.79717 19.7989C6.8612 20.6537 8.10004 21.2982 9.4486 21.6625C9.96352 21.8016 10.4944 21.8999 11.0377 21.9535C11.3482 21.9841 11.6627 22.0001 11.9806 22.0007C14.4674 22.0055 16.7396 21.0695 18.4892 19.5501L18.4892 19.5499C20.7834 17.5596 22.1788 14.566 21.9815 11.3763C21.6591 6.1646 17.1763 1.88603 11.7841 2.00232C6.45063 2.11764 2.1613 6.49136 2.00443 11.6945C1.91012 14.8255 3.3277 17.7125 5.59218 19.6298C5.65955 19.6865 5.72788 19.7432 5.79717 19.7989Z" fill="black"/>
<path fill-rule="evenodd" clip-rule="evenodd" d="M15.1111 8.14069C15.1111 9.87525 13.703 11.2814 11.966 11.2814C10.229 11.2814 8.82095 9.87525 8.82095 8.14069C8.82095 6.40614 10.229 5 11.966 5C13.703 5 15.1111 6.40614 15.1111 8.14069ZM11.9806 21.8818C14.4673 21.8866 16.7395 20.9506 18.4891 19.4312C18.4093 15.5255 15.5163 12.8811 11.9806 12.8811C8.44478 12.8811 5.63463 15.5678 5.59229 19.5109C5.65965 19.5676 5.72798 19.6243 5.79727 19.6801C7.49972 21.0476 9.64968 21.877 11.9806 21.8818Z" fill="white"/>
</svg>
