<svg width="24" height="24" viewBox="0 0 24 24" fill="none" xmlns="http://www.w3.org/2000/svg">
<path fill-rule="evenodd" clip-rule="evenodd" d="M3.175 14.6635C3.01601 14.8254 2.75429 14.8228 2.59857 14.6577L0.109829 12.0189C-0.132141 11.7624 0.0521855 11.341 0.404831 11.3445L1.97831 11.3603C1.95959 11.28 1.95315 11.195 1.96103 11.1071C2.11008 9.44435 2.67366 7.84024 3.60639 6.4443C4.70521 4.79981 6.26699 3.51809 8.09426 2.76121C9.92152 2.00433 11.9322 1.8063 13.872 2.19215C15.5186 2.51968 17.0514 3.25545 18.3325 4.32579C18.7115 4.64238 18.7091 5.21199 18.3599 5.56115C18.0108 5.91031 17.4474 5.90592 17.0624 5.59677C16.036 4.77264 14.8227 4.20447 13.5231 3.94596C11.9302 3.62911 10.2791 3.79173 8.77856 4.41326C7.27804 5.0348 5.99553 6.08733 5.0932 7.43776C4.35705 8.53949 3.90092 9.79914 3.75788 11.1077C3.74761 11.2016 3.72484 11.2922 3.69126 11.3774L5.43469 11.3949C5.78733 11.3984 5.96318 11.8234 5.71612 12.0751L3.175 14.6635ZM20.7463 9.33689C20.9053 9.17494 21.167 9.17757 21.3228 9.34267L23.8115 11.9815C24.0535 12.238 23.8691 12.6594 23.5165 12.6559L21.943 12.6401C21.9617 12.7204 21.9682 12.8054 21.9603 12.8933C21.8112 14.556 21.2477 16.1602 20.3149 17.5561C19.2161 19.2006 17.6543 20.4823 15.8271 21.2392C13.9998 21.9961 11.9891 22.1941 10.0493 21.8082C8.40272 21.4807 6.86993 20.7449 5.5888 19.6746C5.20986 19.358 5.21222 18.7884 5.56138 18.4392C5.91055 18.0901 6.47392 18.0945 6.85896 18.4036C7.88537 19.2278 9.09861 19.7959 10.3982 20.0544C11.9911 20.3713 13.6423 20.2087 15.1428 19.5871C16.6433 18.9656 17.9258 17.9131 18.8281 16.5626C19.5643 15.4609 20.0204 14.2013 20.1634 12.8927C20.1737 12.7988 20.1965 12.7081 20.2301 12.623L18.4866 12.6055C18.134 12.602 17.9581 12.1769 18.2052 11.9253L20.7463 9.33689Z" fill="black"/>
</svg>
