<svg width="24" height="24" viewBox="0 0 24 24" fill="none" xmlns="http://www.w3.org/2000/svg">
<path fill-rule="evenodd" clip-rule="evenodd" d="M12.962 4.26194C12.6332 3.91269 12.0782 3.91269 11.7495 4.26194L4.14142 12.3455C3.94447 12.5548 3.95445 12.8841 4.16371 13.081C4.37297 13.278 4.70227 13.268 4.89922 13.0587L12.3557 5.13618L19.8122 13.0587C20.0092 13.268 20.3385 13.278 20.5477 13.081C20.757 12.8841 20.767 12.5548 20.57 12.3455L12.962 4.26194ZM12.7346 5.82017C12.5292 5.60189 12.1823 5.60189 11.9768 5.82017L5.34568 12.8658C5.03316 13.1978 5.26858 13.7427 5.72457 13.7427H6.47922V19.4662C6.47922 19.7536 6.71217 19.9865 6.99954 19.9865H9.41748V14.7834C9.41748 14.2086 9.88339 13.7427 10.4581 13.7427H14.2534C14.8281 13.7427 15.294 14.2086 15.294 14.7834V19.9865H17.712C17.9994 19.9865 18.2323 19.7536 18.2323 19.4662V13.7427H18.9869C19.4429 13.7427 19.6783 13.1978 19.3658 12.8658L12.7346 5.82017Z" fill="black"/>
</svg>
